HIERARCHY
ROOT Idle
{
	OFFSET 0.000000 0.000000 0.000000
	CHANNELS 6 Xposition Yposition Zposition Xrotation Yrotation Zrotation
	JOINT BR_Root
	{
		OFFSET 0.011196 146.613800 -47.121105
		CHANNELS 3 Xrotation Yrotation Zrotation
		JOINT Hip
		{
			OFFSET -0.000001 0.000000 0.000004
			CHANNELS 3 Xrotation Yrotation Zrotation
			JOINT B_L_Leg_1
			{
				OFFSET 19.272741 -18.122696 -18.212677
				CHANNELS 3 Xrotation Yrotation Zrotation
				JOINT B_L_Leg_2
				{
					OFFSET -1.105446 -37.251808 6.904991
					CHANNELS 3 Xrotation Yrotation Zrotation
					JOINT B_L_Leg_3
					{
						OFFSET 2.988464 -34.227859 -35.822845
						CHANNELS 3 Xrotation Yrotation Zrotation
						JOINT B_L_Leg_4
						{
							OFFSET -4.953039 -37.344734 0.868431
							CHANNELS 3 Xrotation Yrotation Zrotation
							JOINT B_L_Leg_5
							{
								OFFSET 0.000534 -11.648654 8.345673
								CHANNELS 3 Xrotation Yrotation Zrotation
								JOINT B_L_Leg______END
								{
									OFFSET -0.000031 -7.398830 2.834976
									CHANNELS 3 Xrotation Yrotation Zrotation
									End Site
									{
										OFFSET 0.000484 7.923370 -0.000572
									}
								}
							}
						}
					}
				}
			}
			JOINT Tail
			{
				OFFSET 6.878351 -2.423019 -49.014999
				CHANNELS 3 Xrotation Yrotation Zrotation
				JOINT Tail_1
				{
					OFFSET 0.426839 -2.592819 -3.316254
					CHANNELS 3 Xrotation Yrotation Zrotation
					JOINT Tail_2
					{
						OFFSET 0.368567 -3.263840 -2.863396
						CHANNELS 3 Xrotation Yrotation Zrotation
						JOINT Tail_3
						{
							OFFSET 0.367414 -4.131454 -2.854347
							CHANNELS 3 Xrotation Yrotation Zrotation
							JOINT Tail_4
							{
								OFFSET 0.488320 -7.735268 -3.760529
								CHANNELS 3 Xrotation Yrotation Zrotation
								JOINT Tail_5
								{
									OFFSET 0.384741 -10.198730 -2.828117
									CHANNELS 3 Xrotation Yrotation Zrotation
									JOINT Tail_6
									{
										OFFSET 0.228124 -13.473534 -1.226143
										CHANNELS 3 Xrotation Yrotation Zrotation
										JOINT Tail_7
										{
											OFFSET 0.108205 -17.395943 0.608932
											CHANNELS 3 Xrotation Yrotation Zrotation
											JOINT Tail_8
											{
												OFFSET 0.247746 -21.716175 0.840424
												CHANNELS 3 Xrotation Yrotation Zrotation
												JOINT Tail_9
												{
													OFFSET 0.195683 -19.571095 -0.696320
													CHANNELS 3 Xrotation Yrotation Zrotation
													JOINT Tail___CAP
													{
														OFFSET 0.066158 -22.029541 -2.434341
														CHANNELS 3 Xrotation Yrotation Zrotation
														End Site
														{
															OFFSET 0.234086 22.162331 0.086906
														}
													}
												}
											}
										}
									}
								}
							}
						}
					}
				}
			}
			JOINT B_R_Leg_1
			{
				OFFSET -14.032607 -18.123199 -22.499062
				CHANNELS 3 Xrotation Yrotation Zrotation
				JOINT B_R_Leg_2
				{
					OFFSET -1.619373 -36.781303 9.005909
					CHANNELS 3 Xrotation Yrotation Zrotation
					JOINT B_R_Leg_3
					{
						OFFSET -4.405123 -34.544182 -35.370235
						CHANNELS 3 Xrotation Yrotation Zrotation
						JOINT B_R_Leg_4
						{
							OFFSET 2.688002 -37.496296 2.591019
							CHANNELS 3 Xrotation Yrotation Zrotation
							JOINT B_R_Leg_5
							{
								OFFSET 0.000166 -11.649652 8.344238
								CHANNELS 3 Xrotation Yrotation Zrotation
								JOINT B_R_Leg______END
								{
									OFFSET -0.000029 -7.399157 2.834076
									CHANNELS 3 Xrotation Yrotation Zrotation
									End Site
									{
										OFFSET -0.000187 -7.923352 -0.000397
									}
								}
							}
						}
					}
				}
			}
		}
		JOINT Spine_1
		{
			OFFSET -0.000001 0.000000 0.000004
			CHANNELS 3 Xrotation Yrotation Zrotation
			JOINT Spine_2
			{
				OFFSET -0.400786 -5.276291 20.451311
				CHANNELS 3 Xrotation Yrotation Zrotation
				JOINT Spine_3
				{
					OFFSET -2.165832 -2.243027 21.372900
					CHANNELS 3 Xrotation Yrotation Zrotation
					JOINT Spine_4
					{
						OFFSET -2.816490 0.481766 21.889019
						CHANNELS 3 Xrotation Yrotation Zrotation
						JOINT Spine_5
						{
							OFFSET -2.598962 1.103973 20.198662
							CHANNELS 3 Xrotation Yrotation Zrotation
							JOINT F_L_Leg_1
							{
								OFFSET 6.713249 -13.935944 8.224041
								CHANNELS 3 Xrotation Yrotation Zrotation
								JOINT F_L_Leg_2
								{
									OFFSET 6.247631 -16.500847 13.711555
									CHANNELS 3 Xrotation Yrotation Zrotation
									JOINT F_L_Leg_3
									{
										OFFSET 6.088474 -22.693214 -23.967663
										CHANNELS 3 Xrotation Yrotation Zrotation
										JOINT F_L_Leg_4
										{
											OFFSET 3.762016 -40.709015 6.077370
											CHANNELS 3 Xrotation Yrotation Zrotation
											JOINT F_L_Leg_5
											{
												OFFSET 2.022966 -28.121128 -13.642796
												CHANNELS 3 Xrotation Yrotation Zrotation
												JOINT F_L_Leg_6
												{
													OFFSET 0.000084 -10.796104 8.137058
													CHANNELS 3 Xrotation Yrotation Zrotation
													JOINT F_L_Leg______END
													{
														OFFSET 0.000004 -7.819414 3.754108
														CHANNELS 3 Xrotation Yrotation Zrotation
														End Site
														{
															OFFSET 0.000101 8.673902 -0.000175
														}
													}
												}
											}
										}
									}
								}
							}
							JOINT Neck_1
							{
								OFFSET -2.502444 -11.763016 20.586391
								CHANNELS 3 Xrotation Yrotation Zrotation
								JOINT Neck_2
								{
									OFFSET 0.065398 12.170349 11.324654
									CHANNELS 3 Xrotation Yrotation Zrotation
									JOINT Neck_3
									{
										OFFSET 0.025290 9.645569 8.711075
										CHANNELS 3 Xrotation Yrotation Zrotation
										JOINT Neck_4
										{
											OFFSET -0.059159 11.803452 9.014275
											CHANNELS 3 Xrotation Yrotation Zrotation
											JOINT Neck_5
											{
												OFFSET -0.171318 9.490906 8.086021
												CHANNELS 3 Xrotation Yrotation Zrotation
												JOINT Neck_6
												{
													OFFSET -0.647655 7.811829 9.355843
													CHANNELS 3 Xrotation Yrotation Zrotation
													JOINT Head
													{
														OFFSET -1.443578 3.837982 13.345428
														CHANNELS 3 Xrotation Yrotation Zrotation
														JOINT Ear_L_1
														{
															OFFSET 8.454196 6.267670 1.099556
															CHANNELS 3 Xrotation Yrotation Zrotation
															JOINT Ear_L_2
															{
																OFFSET 2.682889 5.247238 1.847664
																CHANNELS 3 Xrotation Yrotation Zrotation
																JOINT Ear_L_______END
																{
																	OFFSET 3.926558 5.930420 4.230682
																	CHANNELS 3 Xrotation Yrotation Zrotation
																	End Site
																	{
																		OFFSET 4.938926 6.639374 -0.110329
																	}
																}
															}
														}
														JOINT Upper_Lip
														{
															OFFSET -5.225570 -28.530640 32.209824
															CHANNELS 3 Xrotation Yrotation Zrotation
															JOINT Upper_Lip________END
															{
																OFFSET -1.138157 -6.528290 6.728653
																CHANNELS 3 Xrotation Yrotation Zrotation
																End Site
																{
																	OFFSET 0.114592 9.333786 -1.433945
																}
															}
														}
														JOINT Jaw
														{
															OFFSET -0.327391 -12.909744 2.559357
															CHANNELS 3 Xrotation Yrotation Zrotation
															JOINT Lower_Lip
															{
																OFFSET -3.836265 -22.949799 24.542618
																CHANNELS 3 Xrotation Yrotation Zrotation
																JOINT Lower_Lip_________END
																{
																	OFFSET -0.981403 -4.979752 5.745316
																	CHANNELS 3 Xrotation Yrotation Zrotation
																	End Site
																	{
																		OFFSET 0.093052 7.576660 -1.164169
																	}
																}
															}
														}
														JOINT Ear_R_1
														{
															OFFSET -8.479894 5.994888 -2.029617
															CHANNELS 3 Xrotation Yrotation Zrotation
															JOINT Ear_R_2
															{
																OFFSET -3.327923 5.150330 0.736061
																CHANNELS 3 Xrotation Yrotation Zrotation
																JOINT Ear_R_______END
																{
																	OFFSET -5.361641 5.781433 2.513390
																	CHANNELS 3 Xrotation Yrotation Zrotation
																	End Site
																	{
																		OFFSET 4.777678 -6.482788 1.906975
																	}
																}
															}
														}
													}
												}
											}
										}
									}
								}
							}
							JOINT F_R_Leg_1
							{
								OFFSET -8.255445 -14.105957 6.307331
								CHANNELS 3 Xrotation Yrotation Zrotation
								JOINT F_R_Leg_2
								{
									OFFSET -9.844995 -16.338837 11.637779
									CHANNELS 3 Xrotation Yrotation Zrotation
									JOINT F_R_Leg_3
									{
										OFFSET 0.351200 -21.095245 -26.102848
										CHANNELS 3 Xrotation Yrotation Zrotation
										JOINT F_R_Leg_4
										{
											OFFSET 5.358654 -40.411160 6.822205
											CHANNELS 3 Xrotation Yrotation Zrotation
											JOINT F_R_Leg_5
											{
												OFFSET 3.480070 -30.014305 -8.249077
												CHANNELS 3 Xrotation Yrotation Zrotation
												JOINT F_R_Leg_6
												{
													OFFSET -0.002628 -10.795353 8.138073
													CHANNELS 3 Xrotation Yrotation Zrotation
													JOINT F_R_Leg______END
													{
														OFFSET -0.001791 -7.819062 3.754814
														CHANNELS 3 Xrotation Yrotation Zrotation
														End Site
														{
															OFFSET -0.001778 -8.673891 0.000973
														}
													}
												}
											}
										}
									}
								}
							}
							JOINT Reins_Hold
							{
								OFFSET 1.934499 38.066452 -5.878973
								CHANNELS 3 Xrotation Yrotation Zrotation
								End Site
								{
									OFFSET -0.271925 24.359924 -0.037483
								}
							}
						}
						JOINT LegStrap_L_01
						{
							OFFSET 30.289488 -10.399826 -4.182015
							CHANNELS 3 Xrotation Yrotation Zrotation
							JOINT LegStrap_L_02
							{
								OFFSET 1.449100 -2.587517 0.116595
								CHANNELS 3 Xrotation Yrotation Zrotation
								JOINT LegStrap_L_03
								{
									OFFSET 1.740143 -6.952888 -0.664432
									CHANNELS 3 Xrotation Yrotation Zrotation
									JOINT LegStrap_L_04
									{
										OFFSET 1.415886 -4.868759 0.303712
										CHANNELS 3 Xrotation Yrotation Zrotation
										JOINT LegStrap_L_05
										{
											OFFSET 2.000820 -5.372055 -0.672078
											CHANNELS 3 Xrotation Yrotation Zrotation
											JOINT LegStrap_L_06_Twist
											{
												OFFSET 4.795645 -6.062637 -1.248389
												CHANNELS 3 Xrotation Yrotation Zrotation
												End Site
												{
													OFFSET -0.856487 6.998711 3.405405
												}
											}
										}
									}
								}
							}
						}
						JOINT LegStrap_R_01
						{
							OFFSET -28.018677 -11.061813 -11.648318
							CHANNELS 3 Xrotation Yrotation Zrotation
							JOINT LegStrap_R_02
							{
								OFFSET -1.957985 -1.751656 -0.214402
								CHANNELS 3 Xrotation Yrotation Zrotation
								JOINT LegStrap_R_03
								{
									OFFSET -1.047276 -7.230797 -0.134690
									CHANNELS 3 Xrotation Yrotation Zrotation
									JOINT LegStrap_R_04
									{
										OFFSET -1.270832 -7.075516 -1.180974
										CHANNELS 3 Xrotation Yrotation Zrotation
										JOINT LegStrap_R_05
										{
											OFFSET -0.806408 -4.553276 -1.736584
											CHANNELS 3 Xrotation Yrotation Zrotation
											JOINT LegStrap_R_06_Twist
											{
												OFFSET -0.994686 -5.551308 -3.972491
												CHANNELS 3 Xrotation Yrotation Zrotation
												End Site
												{
													OFFSET 6.766247 -0.686455 1.154886
												}
											}
										}
									}
								}
							}
						}
					}
				}
			}
		}
	}
}
MOTION
Frames: 4
Frame Time: 0.033333
0.000000 0.000000 0.000000 0.000005 0.000000 -0.000000 -0.000019 0.000016 0.000016 -0.000011 0.000022 -0.000006 0.000021 -0.000026 0.000003 0.000017 0.000010 0.000003 -0.000002 -0.000003 0.000008 -0.000001 0.000012 -0.000013 0.000006 0.000001 0.000004 0.000005 -0.000000 -0.000000 -0.000016 -0.000028 -0.000013 0.000335 0.000014 0.000031 -0.000384 -0.000004 -0.000044 0.000027 -0.000003 0.000009 0.000015 -0.000000 0.000001 0.000009 0.000008 -0.000001 -0.000054 0.000000 0.000002 0.000062 0.000004 0.000001 -0.000025 -0.000000 -0.000001 -0.000002 -0.000001 0.000000 -0.000001 0.000001 0.000000 0.000036 -0.000013 0.000001 0.000015 0.000000 0.000003 -0.000006 -0.000011 -0.000008 -0.000005 0.000012 -0.000018 0.000005 0.000001 0.000011 -0.000000 -0.000000 0.000000 -0.000011 -0.000005 -0.000006 0.000034 0.000002 0.000011 -0.000031 0.000001 -0.000021 -0.000044 -0.000000 -0.000017 0.000028 -0.000019 0.000032 0.000017 0.000008 -0.000009 0.000004 0.000008 -0.000011 0.000006 0.000017 0.000004 -0.000000 0.000008 0.000001 0.000015 -0.000004 -0.000009 0.000007 0.000000 0.000001 -0.000002 -0.000000 0.000000 0.000023 0.000013 -0.000011 -0.000001 0.000002 -0.000002 0.000016 -0.000001 0.000005 0.000059 0.000009 -0.000006 -0.000069 -0.000012 0.000009 0.000001 0.000005 -0.000003 -0.000023 0.000040 0.000023 0.000143 -0.000090 -0.000012 -0.000112 0.000058 0.000012 -0.000003 -0.000001 -0.000007 -0.000016 -0.000039 -0.000040 -0.000001 0.000001 -0.000000 -0.000011 -0.000042 -0.000023 0.000007 -0.000003 0.000002 0.000000 0.000000 0.000001 0.000042 -0.000003 -0.000119 -0.000008 -0.000026 0.000085 -0.000001 -0.000001 0.000007 0.000004 0.000050 -0.000031 -0.000020 -0.000022 -0.000013 -0.000002 0.000010 0.000010 0.000000 0.000001 -0.000002 -0.000011 0.000003 0.000001 0.000009 -0.000001 -0.000001 -0.000001 0.000000 -0.000000 -0.000001 0.000001 -0.000000 -0.000000 -0.000001 -0.000000 -0.000000 0.000001 0.000002 0.000001 -0.000003 0.000000 -0.000000 0.000007 0.000000 0.000001 -0.000001 0.000001 0.000001 0.000004 -0.000006 -0.000007 -0.000002 -0.000001 -0.000000 -0.000003 0.000000 -0.000001 0.000000 -0.000001 -0.000001 -0.000004 -0.000001 -0.000000 -0.000004 -0.000002 0.000003 0.000002 0.000000 
0.000000 0.000000 0.000000 0.000005 0.000000 -0.000000 -0.000019 0.000016 0.000016 -0.000011 0.000022 -0.000006 -0.000640 -0.002232 0.002638 0.001553 -0.008697 -0.002062 -0.001176 0.000156 -0.000402 0.003604 -0.000211 0.000592 0.000011 0.000001 0.000004 0.000006 -0.000000 -0.000000 -0.000016 -0.000028 -0.000013 0.000335 0.000014 0.000031 -0.000384 -0.000004 -0.000044 0.000027 -0.000003 0.000009 0.000015 -0.000000 0.000001 0.000009 0.000008 -0.000001 -0.000054 -0.000001 0.000002 0.000062 0.000004 0.000001 -0.000025 -0.000000 -0.000002 -0.000002 0.000012 0.000001 -0.000001 0.000001 0.000000 0.000036 -0.000013 -0.000004 0.000018 -0.000001 0.000003 -0.002472 -0.000062 0.000712 0.004200 -0.000496 -0.002329 0.000003 0.000001 0.000011 -0.000000 0.000000 -0.000000 0.003475 0.000026 0.000308 -0.003455 -0.000046 -0.000257 -0.003520 -0.000038 -0.000423 0.003405 0.003532 0.000276 0.000029 -0.000018 0.000032 0.004348 -0.004948 0.005698 -0.001956 0.004454 -0.004188 -0.006671 -0.007786 -0.002498 0.003420 0.000387 -0.000139 0.002162 0.001083 0.002337 0.000012 0.000003 -0.000001 -0.000007 0.000000 0.000000 0.007443 0.002830 -0.003238 -0.003797 -0.003111 0.000731 -0.002728 0.004547 -0.006716 -0.005196 0.012077 -0.013922 0.003857 0.007447 -0.001501 -0.000006 0.000003 -0.000006 0.000805 0.018605 0.024019 0.000142 -0.000086 -0.000020 -0.000112 0.000061 0.000009 -0.000012 0.000008 -0.000004 -0.000006 -0.000039 -0.000040 -0.000000 0.000000 -0.000000 -0.000007 -0.000041 -0.000027 0.000002 -0.000002 -0.000001 -0.000004 -0.000002 0.000000 0.000041 -0.000001 -0.000128 -0.000014 -0.000026 0.000088 -0.000016 -0.000015 0.000001 -0.000681 -0.001455 0.005027 0.008453 0.002660 0.003633 -0.003424 -0.006456 -0.003341 -0.000001 -0.000002 -0.000001 -0.000006 -0.000006 -0.000000 -0.000001 -0.000003 0.000001 0.000001 0.000000 -0.000000 -0.000000 0.000002 -0.000000 0.000001 -0.000000 -0.000000 0.000000 -0.000000 -0.000000 -0.000001 -0.000003 -0.000001 -0.000000 0.000010 -0.000005 0.000002 -0.000012 -0.000004 0.000003 0.000013 0.000010 -0.000006 -0.000001 -0.000005 0.000000 -0.000003 0.000000 -0.000001 0.000000 -0.000001 -0.000003 -0.000012 -0.000001 -0.000005 -0.000015 -0.000008 -0.000000 -0.000013 -0.000007 
0.000000 0.000000 0.000000 0.000005 0.000000 -0.000000 -0.000119 0.010590 0.000733 -0.000011 0.000023 -0.000006 -0.009344 -0.008985 0.003883 0.006905 -0.008865 -0.002004 -0.004706 0.000595 -0.001629 0.007175 -0.000427 0.001194 0.000018 0.000001 0.000004 -0.000008 -0.000000 0.000000 -0.000016 -0.000030 -0.000013 0.000326 0.000016 0.000034 -0.000385 -0.000000 -0.000041 0.000034 0.000001 0.000011 0.000018 0.000001 0.000001 0.000014 0.000009 0.000001 -0.000051 -0.000001 0.000002 0.000063 0.000003 0.000001 -0.000028 -0.000000 -0.000002 -0.000003 0.000012 0.000001 -0.000007 -0.000000 -0.000001 -0.003842 -0.007288 0.003740 0.004025 0.000021 -0.001186 -0.004939 -0.000118 0.001429 0.008409 -0.001008 -0.004647 0.000007 0.000001 0.000011 -0.000002 0.000000 0.000000 0.017939 -0.009680 -0.003506 -0.017587 0.006650 -0.000129 -0.017388 -0.003677 -0.002341 0.013745 0.017624 0.001002 0.000027 -0.000017 0.000032 0.013249 -0.004638 0.016497 -0.003153 0.011840 -0.014452 -0.026455 -0.031054 -0.009954 0.013652 0.000790 -0.000637 0.008531 0.004241 0.009340 0.000003 0.000006 -0.000003 -0.000002 -0.000000 -0.000000 0.025757 0.008354 -0.009358 -0.008670 -0.009972 0.013453 -0.007017 0.025763 -0.027034 -0.014930 0.039626 -0.048750 0.012702 0.023143 -0.014335 -0.000000 0.000001 -0.000007 -0.004442 0.074227 0.091385 0.000137 -0.000070 0.000004 -0.000102 0.000044 0.000008 0.000004 -0.000003 -0.000003 -0.000019 -0.000039 -0.000041 -0.000001 0.000000 -0.000000 -0.000010 -0.000038 -0.000028 0.000013 -0.000001 -0.000000 -0.000026 -0.000002 -0.000004 0.000046 -0.000014 -0.000142 -0.000011 -0.000012 0.000087 0.000005 0.000004 0.000007 -0.003602 -0.005841 0.018825 0.017676 0.012360 -0.005891 -0.009855 -0.027197 -0.009736 0.003571 0.000349 0.000234 -0.000299 0.003130 0.008869 0.000013 -0.000006 0.000003 -0.000016 0.000000 -0.000000 0.000001 0.000000 0.000000 -0.000000 -0.000001 -0.000000 0.000000 0.000002 -0.000003 0.000001 -0.000005 0.000001 -0.000001 0.000010 -0.000002 0.000014 -0.000035 -0.000007 -0.000007 0.000022 -0.000004 -0.000006 -0.000001 -0.000007 0.000000 -0.000010 0.000000 0.000000 0.000000 0.000000 -0.000003 -0.000021 -0.000005 -0.000004 -0.000021 -0.000011 -0.000003 -0.000014 -0.000007 
0.000000 0.000000 0.000000 0.000005 0.000000 -0.000000 0.002441 0.021126 -0.000856 -0.000010 0.000022 -0.000006 -0.018084 -0.020691 0.005635 0.016155 0.006777 0.001913 -0.011600 0.001456 -0.004036 0.014951 -0.002072 -0.000846 0.000010 0.000001 0.000004 -0.000006 0.000000 0.000000 -0.000014 -0.000038 -0.000024 0.000336 0.000020 0.000037 -0.000387 0.000004 -0.000037 0.000033 0.000005 0.000014 0.000017 0.000000 0.000001 0.000014 0.000033 0.000007 -0.000051 0.000001 0.000002 0.000062 0.000003 0.000001 -0.000028 -0.000000 -0.000002 -0.000003 0.000039 0.000002 -0.000014 0.000001 -0.000002 -0.006778 -0.017380 0.005237 0.008067 0.000048 -0.002382 -0.007420 -0.000180 0.002152 0.012610 -0.001522 -0.006965 -0.000000 -0.000005 0.000015 -0.000002 -0.000000 -0.000000 0.035659 -0.023357 -0.004103 -0.031817 0.016787 0.000603 -0.038557 -0.011194 -0.001913 0.034443 0.042319 0.002600 0.000028 -0.000018 0.000032 0.025307 -0.014087 0.043141 -0.013660 0.025033 -0.032540 -0.059067 -0.069389 -0.022355 0.030453 0.001582 -0.001427 0.019026 0.009629 0.020883 0.000005 0.000012 -0.000007 0.000005 0.000000 -0.000000 0.054980 0.016590 -0.018379 -0.021587 -0.025427 0.031959 -0.016699 0.054347 -0.063826 -0.028913 0.087562 -0.103824 0.022469 0.054007 -0.030863 0.000000 -0.000003 -0.000012 -0.007626 0.163296 0.203472 0.000147 -0.000073 -0.000030 -0.000120 0.000043 0.000004 -0.000010 0.000006 -0.000010 -0.000007 -0.000038 -0.000038 0.000001 -0.000001 -0.000000 -0.000007 -0.000034 -0.000035 0.000010 0.000003 -0.000007 0.000006 -0.000002 0.000002 0.000047 -0.000001 -0.000131 -0.000022 -0.000016 0.000092 -0.000011 -0.000010 0.000002 -0.007897 -0.013173 0.042257 0.019105 0.026353 -0.032243 -0.023623 -0.066953 -0.017953 0.010560 0.004546 -0.002783 -0.000577 0.006259 0.017730 0.000007 -0.000012 0.000007 -0.000003 0.000000 -0.000000 0.000000 0.000000 0.000000 0.000002 -0.000001 -0.000015 -0.000000 -0.000000 -0.000003 -0.000000 -0.000001 0.000000 -0.000003 0.000020 0.000002 0.000036 -0.000084 -0.000030 -0.000022 0.000034 0.000015 -0.000005 -0.000001 -0.000012 -0.000000 -0.000008 0.000001 0.000002 0.000002 -0.000001 -0.000003 -0.000029 -0.000007 -0.000005 -0.000013 -0.000009 -0.000002 -0.000015 -0.000006 
